Patient4_TMGait_0pt5_02_left_35_EMG.mot
version=1
nRows=33
nColumns=33
inDegrees=no
endheader
time	1LAddLong	2LGlutMax	3LGlutMed	4LIliopsoas	5LSemiMemb	6LBicFemLong	7LRecFem	8LVastMed	9LVastLat	10LGasMed	11LTibAnt	12lTibPost	13LPeroneusLong	14LSol	15LExtDigLong	16LFlexDigLong	17RAddLong	18RGlutMax	19RGlutMed	20RIliopsoas	21RSemiMemb	22RBicFemLong	23RRecFem	24RVastMed	25RVastLat	26RGasMed	27RTibAnt	28RTibPost	29RPeroneusLong	30RSol	31RExtDigLong	32RFlexDigLong
45.502	0.001373	0.63065	0.044861	0.014038	-0.032501	0.068817	-0.46921	0.001373	0.30807	0.10193	-0.01709	-0.033722	-0.020599	-0.28076	0.14313	-0.042877	0.00412	-0.26535	0.002899	-0.000763	0.082092	0.020142	0.30182	-0.11124	0.066833	0.006866	0.76553	-0.010681	-0.11856	0.2536	-0.002747	0.005646
45.503	-0.012054	0.73959	-0.016479	0.011749	-0.040741	0.040283	-0.44464	0.004272	0.30594	0.098419	-0.21683	-0.041962	0.036163	-0.26596	-0.007019	0.14206	-0.007935	-0.36224	-0.1033	-0.02182	0.091248	0.11032	0.40436	-0.18295	0.045166	0.009003	-0.35278	-0.010681	-0.1207	0.09964	-0.004578	0.002136
45.504	-0.011902	0.81894	-0.046844	0.015564	-0.048218	-0.089264	-0.41061	0.009918	0.18143	-0.038452	-0.19959	-0.016785	0.067902	-0.13657	0.084534	0.011902	0.006866	-0.40649	-0.10895	-0.11841	0.082092	0.20783	0.42007	-0.15717	0.047913	0.007324	-0.336	-0.00351	-0.1297	0.027771	-0.003357	0.009918
45.505	-0.018616	0.79987	-0.006714	0.018158	-0.14023	-0.024567	-0.41382	0.004425	-0.079956	-0.065155	-0.18265	-0.044556	0.068207	-0.01709	0.76797	-0.16495	0.039978	-0.40344	-0.22186	-0.1471	0.13199	0.12283	0.38757	-0.10147	0.038147	0.019073	0.1709	-0.005646	0.10513	-0.055542	-0.002747	0.010681
45.506	-0.009766	0.83496	0.01709	0.009918	-0.1857	-0.02533	-0.42236	0.001221	-0.24674	-0.14832	-0.08255	-0.048218	0.17395	0.18768	0.37796	-0.3302	0.017853	-0.44769	-0.40482	-0.21713	0.1149	0.049286	0.42282	-0.062561	0.022736	0.025635	-0.036926	-0.00885	0.37628	-0.25177	-0.003967	0.012054
45.507	-0.005646	0.87845	-0.019684	0.006256	-0.11749	0.041199	-0.45044	-0.004425	-0.17197	-0.29572	0.068207	-0.004425	0.0914	0.37323	-0.51483	-0.51056	-0.005188	-0.47409	-0.42374	-0.24857	0.071411	0.075836	0.40085	-0.009766	0.028839	0.027313	-0.025482	-0.005798	0.44373	-0.28488	-0.003967	0.012512
45.508	0.020294	0.98053	-0.18738	0.030365	-0.059509	-0.000153	-0.48614	-0.02121	-0.086975	-0.27252	0.1178	0.043488	-0.059052	0.38895	-0.80749	0.34653	-0.006409	-0.44769	-0.35263	-0.19882	0.011292	0.027313	0.37674	-0.058289	0	0.012817	-0.75028	0.006104	0.17044	-0.18127	-0.002899	0.005493
45.509	0.031738	0.92041	-0.27222	0.025635	0.084991	-0.045471	-0.4921	-0.062408	0.062103	-0.19547	0.11231	-0.12131	-0.1062	0.42114	-0.71823	0.091248	-0.01709	-0.47867	-0.36057	-0.21561	-0.00946	0.045471	0.35111	-0.015869	0.009613	0.00473	-0.36529	-0.009613	-0.17609	-0.081482	0.00061	0.002441
45.51	0.031891	0.7785	-0.1503	-0.009155	0.13947	-0.090485	-0.49637	0.009613	0.069733	-0.336	0.060425	-0.12161	-0.16495	0.085754	-0.76233	0.10864	0.040588	-0.54611	-0.32196	-0.16037	-0.035248	0.069885	0.30579	0.14923	0.017548	0.012054	-0.15961	-0.007019	-0.018158	0.068359	0.001373	0.003204
45.511	0.024261	0.71701	0.029907	0.006256	0.088806	-0.092773	-0.48187	-0.007324	0.049744	-0.24262	-0.040131	-0.041199	-0.058441	-0.029755	-0.27924	-0.001526	0.074615	-0.58151	-0.2002	0.06546	-0.077209	0.064697	0.30945	0.18295	0.014038	0.01297	-0.19012	-0.007782	0.17075	0.23544	-0.001678	0.000763
45.512	0.020142	0.62927	0.011444	0.003662	0.047913	0.005798	-0.47211	-0.055542	0.031433	-0.21301	-0.065002	-0.08255	-0.031281	-0.22614	-0.098724	0.080872	0.078125	-0.62943	-0.15442	0.27161	-0.099335	0.030975	0.33463	0.18188	-0.012665	0.005798	-0.65811	-0.004272	0.16739	0.39261	0.000458	-0.004272
45.513	0.007172	0.62485	-0.18768	0.003052	0.026398	0.037384	-0.43915	-0.007782	-0.031433	-0.082855	-0.10269	-0.036469	0.053101	-0.21545	-0.04364	0.10513	0.13565	-0.63355	-0.21561	0.40649	-0.081024	0.025177	0.30334	0.16327	-0.020599	0.000153	-0.7692	0.00061	0.11536	0.39383	-0.00061	0.000153
45.514	-0.007172	0.63217	-0.26276	0.017395	-0.023193	0.065765	-0.44022	0.001068	-0.034485	0.000458	-0.10193	-0.017853	0.2298	-0.060883	0.035858	0.18372	0.10635	-0.56549	-0.13809	0.29709	-0.065613	-0.008698	0.30609	0.16251	-0.018921	0.001526	-0.33173	-0.012512	0.035858	0.34149	-0.002289	-0.006104
45.515	-0.010376	0.62744	-0.24582	0.007019	-0.035095	0.20294	-0.44311	0.012054	0.003967	-0.22446	-0.11322	-0.003662	0.23315	-0.17136	-0.025787	-0.000153	0.057373	-0.56778	-0.019073	0.082092	-0.0177	-0.10437	0.26916	0.037689	-0.014038	-0.003815	-0.093689	-0.007782	0.11612	0.29923	-0.001678	-0.003357
45.516	-0.024719	0.59204	0.070343	-0.001678	-0.035553	0.34454	-0.51193	0.016022	0.019989	-0.083466	0.08255	0.008545	0.18646	-0.354	0.03006	0.14786	0.045013	-0.59174	0.011444	0.059204	-0.036469	-0.13458	0.25711	0.019989	-0.01297	-0.003662	-0.38666	-0.010681	0.18631	0.32166	0.001526	-0.006256
45.517	-0.023346	0.52094	-0.002136	0.009613	-0.12054	0.35187	-0.63065	0.023804	0.12543	0.20142	0.25085	0.006714	0.13412	-0.63019	0.18768	-0.26535	0.014038	-0.63294	-0.13641	0.093689	0.001068	-0.10834	0.2095	0.000153	-0.000153	-0.007782	-0.78995	-0.007019	0.091553	0.28824	-0.001373	-0.011292
45.518	0.005035	0.48904	-0.047302	0.019226	-0.11215	0.29419	-0.58319	0.013885	0.242	0.062256	0.29114	0.011292	0.062256	-0.5043	0.24811	-0.36987	0.079651	-0.68695	-0.2179	0.1062	-0.059509	-0.020142	0.233	-0.080261	-0.01236	-0.00061	-0.52994	-0.00946	-0.050507	0.11276	-0.003204	0.002747
45.519	0.024567	0.42526	0.068512	-0.011597	-0.063477	0.023346	-0.69015	0.005188	0.28564	-0.37293	0.27954	0.006561	0.010376	-0.31067	0.69763	0.15106	0.10696	-0.63553	-0.18967	0.075531	-0.14694	0.054321	0.27786	-0.095825	-0.0177	0.006714	-0.13977	-0.004425	-0.046539	-0.097656	-0.003204	0.006256
45.52	0.029907	0.34286	-0.081177	-0.001831	-0.016022	-0.029449	-0.62592	-0.000916	0.25955	-0.17197	0.12833	0.013275	-0.035706	0.12909	0.57739	-0.21851	0.088348	-0.62714	-0.14084	0.09552	-0.13229	0.042877	0.25635	-0.10819	-0.006256	0.020599	-0.48981	-0.006409	0.21973	-0.17166	-0.004272	0.003357
45.521	0.023499	0.14358	-0.17685	0.020447	0.14771	0.042572	-0.53146	-0.011139	0.13534	0.24887	-0.4216	0.019379	0.001984	0.44601	0.37293	0.3801	0.061188	-0.64972	-0.21683	0.13489	-0.13382	0.068359	0.22537	-0.11765	0.006409	0.016174	-0.46188	-0.009003	0.28351	-0.11276	-0.002441	0.006104
45.522	0.022125	0.06134	-0.271	0.029907	0.1532	0.094147	-0.42923	-0.015717	0.041046	0.22446	-0.51498	0.03479	0.015564	0.20264	0.224	-0.002747	-0.006866	-0.73273	-0.28686	0.074005	-0.074615	0.24612	0.25925	-0.13443	0.003815	0.008545	0.17303	-0.005188	0.055237	-0.11444	-0.004425	0.002136
45.523	0.005493	0.10071	-0.099487	0.03067	0.093384	-0.30212	-0.44769	-0.009003	0.035858	0.24414	-0.30075	0.039215	0.020752	0.096436	0.28885	0.034637	-0.001678	-0.64667	-0.2066	-0.02533	0.00946	0.29541	0.26627	-0.087585	0.002594	0.000153	0.5748	-0.008698	-0.053711	-0.14313	-0.001526	-0.001068
45.524	0.000153	0.14435	-0.09613	0.016022	0.059814	-0.49515	-0.4924	-0.025635	0.093689	0.17075	-0.044403	0.011749	0.00824	-0.14374	-0.059509	-0.00351	-0.029602	-0.63263	-0.11551	-0.19272	0.12482	0.17746	0.24704	-0.062103	-0.007477	0.007324	0.31342	-0.007477	-0.005951	-0.13916	-0.003204	-0.009155
45.525	-0.027771	0.215	0.057831	-0.005035	0.028992	-0.15991	-0.47714	-0.022888	0.081482	0.002136	0.14999	-0.001526	0.058441	-0.13977	0.25436	-0.13947	-0.059967	-0.66101	-0.09491	-0.22842	0.13229	0.14236	0.25909	-0.076447	-0.001221	0.000916	0.13062	-0.008087	-0.19318	-0.048676	-0.003052	-0.011444
45.526	-0.019836	0.26321	0.086975	-0.017395	-0.011902	0.040588	-0.53772	-0.017242	0.033722	0.047302	0.13077	-0.000458	0.070038	-0.001831	-0.32501	0.27145	-0.055237	-0.78934	-0.24536	-0.15991	0.027924	0.23285	0.26459	-0.062714	-0.038757	-0.006409	0.12543	-0.00824	-0.31754	0.11627	-0.00351	-0.014496
45.527	-0.016785	0.25238	0.34653	0.002899	-0.05127	0.050812	-0.5632	-0.028534	0.05188	0.007172	0.021973	0.01358	0.076599	-0.038452	-0.56061	0.20599	-0.10437	-0.85312	-0.29068	-0.023346	-0.09201	0.23636	0.28122	-0.015259	-0.051575	-0.007477	-0.074005	-0.00412	-0.24185	0.13412	-0.001984	-0.005798
45.528	-0.023193	0.19669	0.44708	0.011292	-0.08316	0.022888	-0.5246	-0.020905	0.038757	-0.025787	-0.014038	0.054016	-0.051727	0.11673	-0.30731	-1.6577	-0.098267	-0.80673	-0.20432	0.16998	-0.12878	0.1265	0.24506	0.078125	-0.037689	0.006256	0.35767	-0.010223	-0.19226	0.068054	-0.004578	-0.000916
45.529	-0.023499	0.19196	0.48737	0.016479	-0.080872	0.30838	-0.46127	-0.0177	0.021515	-0.018311	-0.12955	0.051727	-0.082245	0.2063	-0.21393	0.63141	-0.047302	-0.82336	-0.17487	0.26901	-0.097656	0.047302	0.26199	0.098419	-0.040283	0.005035	1.022	-0.001678	-0.19455	0.071716	-0.005188	-0.002136
45.53	-0.028381	0.15503	0.31189	0.004272	-0.039215	0.40207	-0.39871	-0.016937	0.030365	0.0383	-0.448	-0.009003	0.10346	0.26932	0.103	0.97183	0.062714	-0.83954	-0.19623	0.21164	-0.071106	0.018005	0.30167	0.071106	-0.045929	0.006256	1.0381	-0.009308	-0.14023	0.067749	-0.007172	-0.005493
45.531	-0.036469	0.053711	0.28519	-0.011292	-0.043945	0.26825	-0.35019	-0.006561	0.039063	0.050659	-0.32837	-0.044861	0.26291	0.37018	-0.19623	-0.73532	0.18646	-0.867	-0.19119	0.10986	-0.042114	-0.049744	0.30014	0.028839	-0.03006	0.001678	0.72754	-0.004425	-0.059357	0.032349	-0.00473	-0.006714
45.532	-0.032806	-0.008392	0.23789	-0.002747	-0.033569	0.062866	-0.31906	-0.005493	0.076447	0.04303	0.044708	-0.032806	0.19379	0.3775	0.33554	-0.65216	0.18463	-0.85358	-0.16495	-0.036011	-0.005798	-0.08606	0.28961	0.014954	-0.016937	-0.006409	0.16571	-0.007782	-0.064545	0.061035	-0.00412	-0.01236
45.533	-0.025177	-0.012054	0.12817	-0.005951	-0.082855	-0.089264	-0.29739	-0.009003	0.025024	0.038147	0.30304	-0.023193	0.063324	0.18478	0.21103	0.81421	0.097351	-0.77972	-0.12985	0.004578	-0.024719	-0.20401	0.28778	-0.009613	-0.009003	-0.013123	-0.7019	-0.009155	-0.059357	0.090637	-0.00351	-0.007019
45.534	-0.013885	-0.058746	0.11841	-0.003357	-0.049133	-0.29404	-0.29144	-0.015106	-0.013123	-0.016632	0.41702	-0.056305	0.068665	-0.18768	0.54596	-0.008698	0.075836	-0.70786	-0.061951	-0.032654	-0.031586	-0.1712	0.34271	-0.023346	-0.020752	-0.011444	-1.4011	-0.005341	-0.010223	0.060883	0.00061	-0.005341
